<?xml version="1.0" encoding="iso-8859-1"?>
<!-- Generator: Adobe Illustrator 19.0.0, SVG Export Plug-In . SVG Version: 6.00 Build 0)  -->
<svg version="1.1" id="Layer_1" xmlns="http://www.w3.org/2000/svg" xmlns:xlink="http://www.w3.org/1999/xlink" x="0px" y="0px"
	 viewBox="0 0 512 512" style="enable-background:new 0 0 512 512;" xml:space="preserve">
<circle style="fill:#FEE187;" cx="255.997" cy="255.997" r="167.991"/>
<g>
	<path style="fill:#FFC61B;" d="M256,0c-7.664,0-13.877,6.213-13.877,13.877S248.336,27.753,256,27.753
		c57.945,0,110.905,21.716,151.199,57.422l-32.781,32.781C341.468,89.6,299.928,74.132,256,74.132
		c-45.156,0-86.517,16.549-118.35,43.892L95.044,75.42c-0.075-0.075-0.158-0.139-0.235-0.212c-0.071-0.075-0.132-0.154-0.205-0.228
		c-5.417-5.419-14.206-5.419-19.624,0C26.628,123.332,0,187.62,0,256c0,141.159,114.841,256,256,256
		c68.38,0,132.667-26.628,181.02-74.98C485.372,388.668,512,324.38,512,256C512,114.841,397.159,0,256,0z M365.043,147.093
		c5.416,5.423,14.203,5.429,19.624,0.011c0.402-0.402,0.766-0.828,1.109-1.264c0.029-0.029,0.061-0.053,0.09-0.082l40.957-40.957
		c32.834,37.054,53.823,84.82,56.987,137.322h-15.439c-7.664,0-13.877,6.213-13.877,13.877s6.213,13.877,13.877,13.877h15.443
		c-3.047,51.144-22.904,99.082-56.912,137.403l-32.929-32.929c27.344-31.833,43.892-73.193,43.892-118.35
		c0-7.664-6.213-13.877-13.877-13.877s-13.877,6.213-13.877,13.877c0,84.978-69.135,154.115-154.115,154.115
		S101.883,340.979,101.883,256s69.135-154.115,154.115-154.115C297.201,101.885,335.927,117.941,365.043,147.093z M256,453.159
		c-7.664,0-13.877,6.213-13.877,13.877v16.777c-52.502-3.165-100.269-24.154-137.322-56.987l32.849-32.849
		c31.833,27.344,73.193,43.892,118.35,43.892s86.517-16.549,118.35-43.892l32.929,32.929
		c-38.319,34.009-86.259,53.867-137.403,56.912v-16.782C269.877,459.371,263.664,453.159,256,453.159z M28.188,269.877h46.47
		c3.011,39.73,18.85,75.932,43.367,104.473l-32.85,32.849C52.342,370.146,31.353,322.379,28.188,269.877z M85.096,104.72
		l32.929,32.929c-24.517,28.542-40.355,64.743-43.367,104.473H28.182C31.229,190.979,51.087,143.041,85.096,104.72z"/>
	<path style="fill:#FFC61B;" d="M266.964,315.353l22.811-98.54c0.941,2.399,1.583,4.946,1.873,7.599
		c0.198,1.821,1.674,3.229,3.505,3.229h17.725c2.101,0,3.804-1.769,3.655-3.866c-1.074-15.271-8.461-28.827-19.556-38.076
		l4.302-18.584c0.455-1.968-0.77-3.931-2.738-4.386l-13.451-3.114c-1.968-0.455-3.931,0.77-4.386,2.738l-3.006,12.986
		c-2.412-0.722-4.89-1.289-7.428-1.674l1.515-6.55c0.455-1.968-0.77-3.931-2.738-4.386l-13.451-3.114
		c-1.968-0.455-3.931,0.77-4.388,2.738l-2.484,10.729c-29.492,0.708-53.268,24.9-53.268,54.559v58.372
		c0,15.94,6.869,30.304,17.8,40.294l-4.3,18.575c-0.455,1.968,0.77,3.931,2.738,4.386l13.451,3.114
		c1.968,0.455,3.931-0.77,4.386-2.738l2.781-12.013c2.384,0.822,4.84,1.485,7.359,1.972l-1.221,5.279
		c-0.455,1.968,0.77,3.931,2.738,4.386l13.451,3.114c1.968,0.455,3.931-0.77,4.386-2.738l2.093-9.039h0.957
		c28.798,0,52.459-22.414,54.456-50.712c0.148-2.102-1.551-3.881-3.658-3.881h-17.555c-1.859,0-3.469,1.374-3.669,3.222
		C290.213,302.509,280.008,313.187,266.964,315.353z M220.302,286.014v-58.372c0-13.892,9.575-25.589,22.471-28.843l-21.72,93.83
		C220.567,290.499,220.302,288.288,220.302,286.014z M237.971,313.189l26.661-115.177c2.588,0.222,5.083,0.773,7.442,1.617
		l-26.793,115.747C242.72,314.961,240.271,314.216,237.971,313.189z"/>
</g>
<g>
</g>
<g>
</g>
<g>
</g>
<g>
</g>
<g>
</g>
<g>
</g>
<g>
</g>
<g>
</g>
<g>
</g>
<g>
</g>
<g>
</g>
<g>
</g>
<g>
</g>
<g>
</g>
<g>
</g>
</svg>
