<?xml version="1.0" encoding="iso-8859-1"?>
<!-- Generator: Adobe Illustrator 19.0.0, SVG Export Plug-In . SVG Version: 6.00 Build 0)  -->
<svg version="1.1" id="Layer_1" xmlns="http://www.w3.org/2000/svg" xmlns:xlink="http://www.w3.org/1999/xlink" x="0px" y="0px"
	 viewBox="0 0 512 512" style="enable-background:new 0 0 512 512;" xml:space="preserve">
<path style="fill:#FEA921;" d="M50.229,473.353l35.797,35.797c3.799,3.799,9.957,3.799,13.756,0l101.317-101.317
	c3.799-3.799,3.799-9.957,0-13.756l-35.797-35.797c-3.799-3.799-9.958-3.799-13.756,0L50.229,459.597
	C46.429,463.395,46.429,469.554,50.229,473.353z"/>
<path style="fill:#E58200;" d="M201.099,394.077l-18.398-18.398c3.798,3.799,3.798,9.957-0.001,13.756L81.384,490.751
	c-3.799,3.799-9.958,3.799-13.756,0l-17.399-17.399c0,0,0,0,0,0.001l35.797,35.797c3.799,3.799,9.958,3.799,13.756,0
	l101.317-101.317C204.898,404.034,204.898,397.876,201.099,394.077z"/>
<path style="fill:#C7C5CB;" d="M420.552,62.366C347.275-10.911,238.639-21.081,177.908,39.65
	c-78.228,78.228-55.657,184.987,14.438,264.548c7.546,8.566,7.095,21.535-0.978,29.606l-0.786,0.786l-24.484,24.484l31.838,31.838
	l44.84-44.84c10.09-10.09,10.729-26.191,1.56-37.127c-3.844-4.585-7.942-9.971-12.082-16.027l-0.035,0.035
	c-55.774-70.479-64.558-158.102-17.031-205.63C267.95,34.562,370.124,51.193,443.4,124.47c2.486,2.486,4.905,5.005,7.26,7.553
	c6.258,6.775,17.081-0.608,13.104-8.929C453.443,101.496,438.996,80.81,420.552,62.366z"/>
<path style="fill:#D8D8DA;" d="M206.371,290.702c-33.067-37.758-53.488-80.774-57.517-121.207
	c-4.408-44.226,9.993-83.287,42.802-116.097c22.213-22.212,52.246-33.954,86.852-33.954c31.929,0,64.468,10.163,93.482,28.661
	c2.294,1.463,0.469,4.989-2.057,3.975c-24.429-9.821-49.543-15.027-74.05-15.027c-37.893,0-70.551,12.629-94.443,36.522
	C150.421,124.594,153.192,213.789,206.371,290.702z"/>
<path style="fill:#AEADB3;" d="M448.404,129.627c0.755,0.797,1.516,1.593,2.259,2.397c3.099,3.355,7.316,3.235,10.302,1.252
	c-7.576-12.35-15.721-24.044-20.763-28.769C358.575,27.988,256.478,16.19,197.705,71.284c-52.944,49.629-54.88,135.558,7.25,209.153
	l0.039-0.036c4.616,6.328,9.185,11.957,13.469,16.748c10.209,11.413,9.487,28.225-1.748,38.757l-38.086,35.701l19.308,19.308
	l44.84-44.84c10.091-10.09,10.729-26.191,1.56-37.127c-3.844-4.585-7.943-9.971-12.083-16.027l-0.035,0.035
	c-55.307-69.888-64.407-156.635-18.212-204.428c0.39-0.404,0.784-0.805,1.183-1.203c7.342-7.342,15.641-13.341,24.686-18.03
	c55.953-29.006,140.445-7.903,203.525,55.177c1.279,1.279,2.54,2.568,3.784,3.864C447.597,128.763,447.996,129.197,448.404,129.627z
	"/>
<g>
</g>
<g>
</g>
<g>
</g>
<g>
</g>
<g>
</g>
<g>
</g>
<g>
</g>
<g>
</g>
<g>
</g>
<g>
</g>
<g>
</g>
<g>
</g>
<g>
</g>
<g>
</g>
<g>
</g>
</svg>
